<?xml version="1.0" encoding="UTF-8"?>
<svg width="128px" height="128px" viewBox="0 0 128 128" version="1.1" xmlns="http://www.w3.org/2000/svg" xmlns:xlink="http://www.w3.org/1999/xlink">
    <!-- Generator: Sketch 55.2 (78181) - https://sketchapp.com -->
    <title>icon - 128x128</title>
    <desc>Created with Sketch.</desc>
    <g id="icon---128x128" stroke="none" stroke-width="1" fill="none" fill-rule="evenodd">
        <g id="icon/auto-tweet" transform="translate(6.000000, 0.000000)" fill-rule="nonzero">
            <path d="M6.98014139,75.7000992 C7.24514157,76.7645249 6.58402883,77.852325 5.51419373,78.1208476 C5.35135071,78.1650754 5.22948695,78.1796407 5.05136129,78.1796407 C4.13605276,78.1796407 3.34043094,77.5612253 3.12239299,76.6564169 C-1.75226491,56.4684684 4.74668942,35.262851 20.0804235,21.3209372 C31.2249201,11.1770813 45.6624333,6.00461245 60.6929298,6.76932277 C72.8047347,7.37986599 84.1526796,11.7466676 93.3837014,19.3293642 L96.0101101,21.4867917 L95.3339211,3.60965214 C95.28953,2.49538123 96.138547,1.57951091 97.2563938,1.53461918 C98.3450544,1.49030896 99.2728739,2.35298822 99.3172626,3.46712006 L100.176471,26.5228886 L100.176471,26.9131049 C100.176471,27.999277 99.3399489,28.8705644 98.2534211,28.9153938 L75.0021127,29.7789967 C75.0228987,29.7779452 75.0228987,29.7779452 74.993566,29.7779452 L74.9283822,29.7779452 C73.8643196,29.7779452 72.9808893,28.9273883 72.9365838,27.8450003 C72.8923804,26.7354948 73.7413974,25.8196245 74.8592442,25.7747328 L90.0046944,25.1989613 L94.0513446,25.0451223 L90.9135321,22.4793304 C71.0150404,6.20831747 41.9671156,6.82859039 22.7454141,24.2848476 C8.49820658,37.2150342 2.46470327,56.9188735 6.98014139,75.7000992 Z" id="Path" fill="#FFFFFF"></path>
            <path d="M96.9837902,106.682844 C86.5663445,116.159669 73.3192078,121.309911 59.3767591,121.309911 C58.4391906,121.309911 57.4787381,121.284277 56.5214908,121.233517 C44.54148,120.623652 33.2810465,116.290427 24.0702071,108.774269 L21.2628206,106.483407 L22.8282935,124.260369 C22.9317882,125.377757 22.1315366,126.343463 21.0370911,126.447771 L20.9216125,126.458777 L20.8890246,126.467066 L20.8700709,126.467066 C19.8594992,126.467066 18.9996318,125.677037 18.9122413,124.64981 L16.8330458,101.370722 C16.7297201,100.25524 17.5299716,99.2895335 18.6244171,99.1852258 L41.7162429,97.0915998 C42.8258361,96.9872669 43.7711051,97.7779241 43.8750863,98.9003928 C43.9779537,100.010838 43.1777022,100.976544 42.0832567,101.080852 L26.8120662,102.46768 L23.1436554,102.800824 L25.968613,105.170021 C35.3702362,113.054846 47.1931553,117.281419 59.3507762,117.281419 C72.1936659,117.281419 84.6192655,112.56295 94.33869,103.715511 C108.5499,90.7725463 114.57137,71.0629708 110.049081,52.2984783 C109.785025,51.2341633 110.444099,50.1458868 111.507492,49.878038 C112.542408,49.6173619 113.615258,50.2753779 113.884381,51.3474716 C118.73875,71.5566213 112.266994,92.7377715 96.9837902,106.682844 Z" id="Path" fill="#FFFFFF"></path>
            <ellipse id="Oval" fill="#FFFFFF" cx="58.8823529" cy="63.6167665" rx="26" ry="26.0598802"></ellipse>
            <path d="M53.996012,77.3493014 C65.4925224,77.3493014 71.778664,67.9600798 71.778664,59.8227545 C71.778664,59.554491 71.778664,59.2862275 71.7657029,59.0307385 C72.9840479,58.1620758 74.0468594,57.0762475 74.889332,55.8371257 C73.774676,56.3225549 72.5692921,56.6546906 71.2991027,56.807984 C72.5952144,56.041517 73.5802592,54.8407186 74.0468594,53.3972056 C72.8414756,54.0998004 71.5064806,54.6107784 70.0807577,54.8918164 C68.9401795,53.691018 67.3200399,52.9500998 65.5184447,52.9500998 C62.0707876,52.9500998 59.2711864,55.7093812 59.2711864,59.1073852 C59.2711864,59.5928144 59.3230309,60.0654691 59.439681,60.5125749 C54.2422732,60.2570858 49.6410768,57.8043912 46.556331,54.0742515 C46.0249252,54.9812375 45.7138584,56.041517 45.7138584,57.1656687 C45.7138584,59.299002 46.8155533,61.1896208 48.5004985,62.2882236 C47.4765703,62.2626747 46.5174477,61.9816367 45.6749751,61.5217565 C45.6749751,61.5473054 45.6749751,61.5728543 45.6749751,61.5984032 C45.6749751,64.5876248 47.8265204,67.0658683 50.6909272,67.6407186 C50.1724826,67.7812375 49.6151545,67.8578842 49.0448654,67.8578842 C48.6430708,67.8578842 48.2542373,67.8195609 47.8654038,67.7429142 C48.6560319,70.1956088 50.9631107,71.9712575 53.6979063,72.0223553 C51.559322,73.6702595 48.8634098,74.6538922 45.9341974,74.6538922 C45.4287139,74.6538922 44.9361914,74.6283433 44.443669,74.5644711 C47.1784646,76.3273453 50.4705882,77.3493014 53.996012,77.3493014" id="Path" fill="#1DA1F2"></path>
        </g>
    </g>
</svg>