<svg width="256" height="256" viewBox="0 0 256 256" fill="none" xmlns="http://www.w3.org/2000/svg">
<g clip-path="url(#clip0_9_185)">
<rect width="256" height="256" fill="#14171A"/>
<path d="M135.391 122.13L164.081 88.6548H157.283L132.371 117.721L112.474 88.6548H89.5259L119.614 132.607L89.5259 167.711H96.3249L122.632 137.016L143.645 167.711H166.593L135.39 122.13H135.391ZM126.079 132.995L123.031 128.618L98.7747 93.7922H109.218L128.792 121.898L131.841 126.274L157.286 162.807H146.843L126.079 132.996V132.995Z" fill="white"/>
<g opacity="0.8">
<path d="M102.884 41H159.853C178.966 41 188.523 41 195.797 44.7786C201.927 47.9629 206.925 52.961 210.109 59.0909C213.888 66.3651 213.888 75.9217 213.888 95.0351V138.284H207.748V94.2952C207.748 77.5291 207.748 69.1461 204.434 62.7652C201.641 57.3881 197.256 53.0038 191.879 50.2106C185.498 46.896 177.115 46.896 160.349 46.896H102.884L102.884 43.948L102.884 41Z" fill="url(#paint0_linear_9_185)"/>
<path d="M210.77 153.875L194.568 136.101L226.972 136.101L210.77 153.875Z" fill="white"/>
</g>
<g opacity="0.8">
<path d="M153.522 215.699L96.5534 215.699C77.44 215.699 67.8834 215.699 60.6092 211.921C54.4793 208.736 49.4812 203.738 46.297 197.608C42.5183 190.334 42.5183 180.777 42.5183 161.664L42.5183 118.415L48.6579 118.415L48.6579 162.404C48.6579 179.17 48.6579 187.553 51.9725 193.934C54.7657 199.311 59.15 203.695 64.5271 206.489C70.9079 209.803 79.291 209.803 96.057 209.803L153.522 209.803L153.522 215.699Z" fill="url(#paint1_linear_9_185)"/>
<path d="M45.6357 102.825L61.8377 120.598H29.4337L45.6357 102.825Z" fill="white"/>
</g>
</g>
<defs>
<linearGradient id="paint0_linear_9_185" x1="214.169" y1="134.621" x2="102.884" y2="45.4161" gradientUnits="userSpaceOnUse">
<stop stop-color="white"/>
<stop offset="1" stop-color="white" stop-opacity="0"/>
</linearGradient>
<linearGradient id="paint1_linear_9_185" x1="35.7601" y1="149.341" x2="153.522" y2="215.876" gradientUnits="userSpaceOnUse">
<stop stop-color="white"/>
<stop offset="1" stop-color="white" stop-opacity="0"/>
</linearGradient>
<clipPath id="clip0_9_185">
<rect width="256" height="256" fill="white"/>
</clipPath>
</defs>
</svg>
